<mxfile host="Electron" agent="Mozilla/5.0 (Windows NT 10.0; Win64; x64) AppleWebKit/537.36 (KHTML, like Gecko) draw.io/26.2.2 Chrome/134.0.6998.178 Electron/35.1.2 Safari/537.36" version="26.2.2">
  <diagram name="Page-1" id="_9vZ8oShTqBhKoVnPYbj">
    <mxGraphModel dx="1869" dy="1195" grid="1" gridSize="10" guides="1" tooltips="1" connect="1" arrows="1" fold="1" page="1" pageScale="1" pageWidth="827" pageHeight="1169" math="0" shadow="0">
      <root>
        <mxCell id="0" />
        <mxCell id="1" parent="0" />
        <mxCell id="S2O0dAEXZ0X1E5j-nSAn-1" value="Student" style="rounded=0;whiteSpace=wrap;html=1;" parent="1" vertex="1">
          <mxGeometry x="730" y="960" width="180" height="80" as="geometry" />
        </mxCell>
        <mxCell id="S2O0dAEXZ0X1E5j-nSAn-2" value="3.0" style="swimlane;whiteSpace=wrap;html=1;" parent="1" vertex="1">
          <mxGeometry x="1050" y="1100" width="200" height="90" as="geometry" />
        </mxCell>
        <mxCell id="S2O0dAEXZ0X1E5j-nSAn-3" value="&amp;nbsp;Graduation&amp;nbsp;&lt;div&gt;Requirment&lt;/div&gt;" style="text;html=1;align=center;verticalAlign=middle;resizable=0;points=[];autosize=1;strokeColor=none;fillColor=none;" parent="S2O0dAEXZ0X1E5j-nSAn-2" vertex="1">
          <mxGeometry x="55" y="35" width="90" height="40" as="geometry" />
        </mxCell>
        <mxCell id="S2O0dAEXZ0X1E5j-nSAn-4" value="" style="endArrow=classic;html=1;rounded=0;" parent="1" edge="1">
          <mxGeometry width="50" height="50" relative="1" as="geometry">
            <mxPoint x="1150" y="1090" as="sourcePoint" />
            <mxPoint x="910" y="1020" as="targetPoint" />
            <Array as="points">
              <mxPoint x="1150" y="1020" />
              <mxPoint x="1012.0799999999999" y="1020" />
            </Array>
          </mxGeometry>
        </mxCell>
        <mxCell id="S2O0dAEXZ0X1E5j-nSAn-5" value="Graduation Requirements Request" style="edgeLabel;html=1;align=center;verticalAlign=middle;resizable=0;points=[];" parent="S2O0dAEXZ0X1E5j-nSAn-4" vertex="1" connectable="0">
          <mxGeometry x="-0.3787" y="2" relative="1" as="geometry">
            <mxPoint x="-84" y="-2" as="offset" />
          </mxGeometry>
        </mxCell>
        <mxCell id="S2O0dAEXZ0X1E5j-nSAn-6" value="" style="endArrow=classic;html=1;rounded=0;entryX=1;entryY=1;entryDx=0;entryDy=0;exitX=0.778;exitY=1;exitDx=0;exitDy=0;exitPerimeter=0;" parent="1" source="S2O0dAEXZ0X1E5j-nSAn-1" edge="1">
          <mxGeometry width="50" height="50" relative="1" as="geometry">
            <mxPoint x="830" y="1134" as="sourcePoint" />
            <mxPoint x="1050" y="1134" as="targetPoint" />
            <Array as="points">
              <mxPoint x="870" y="1140" />
              <mxPoint x="970" y="1134" />
            </Array>
          </mxGeometry>
        </mxCell>
        <mxCell id="S2O0dAEXZ0X1E5j-nSAn-7" value="Graduation information" style="edgeLabel;html=1;align=center;verticalAlign=middle;resizable=0;points=[];" parent="S2O0dAEXZ0X1E5j-nSAn-6" vertex="1" connectable="0">
          <mxGeometry x="-0.2912" relative="1" as="geometry">
            <mxPoint x="80" y="-4" as="offset" />
          </mxGeometry>
        </mxCell>
        <mxCell id="S2O0dAEXZ0X1E5j-nSAn-8" value="1.0" style="swimlane;whiteSpace=wrap;html=1;" parent="1" vertex="1">
          <mxGeometry x="380" y="860" width="200" height="90" as="geometry" />
        </mxCell>
        <mxCell id="S2O0dAEXZ0X1E5j-nSAn-9" value="GPA Calculator" style="text;html=1;align=center;verticalAlign=middle;resizable=0;points=[];autosize=1;strokeColor=none;fillColor=none;" parent="S2O0dAEXZ0X1E5j-nSAn-8" vertex="1">
          <mxGeometry x="50" y="42.42" width="100" height="30" as="geometry" />
        </mxCell>
        <mxCell id="S2O0dAEXZ0X1E5j-nSAn-10" value="" style="endArrow=classic;html=1;rounded=0;" parent="1" edge="1">
          <mxGeometry width="50" height="50" relative="1" as="geometry">
            <mxPoint x="770" y="960" as="sourcePoint" />
            <mxPoint x="580" y="892" as="targetPoint" />
            <Array as="points">
              <mxPoint x="770.3199999999997" y="892" />
              <mxPoint x="620.3199999999999" y="892" />
            </Array>
          </mxGeometry>
        </mxCell>
        <mxCell id="S2O0dAEXZ0X1E5j-nSAn-11" value="GPA Calculation Result" style="edgeLabel;html=1;align=center;verticalAlign=middle;resizable=0;points=[];" parent="S2O0dAEXZ0X1E5j-nSAn-10" vertex="1" connectable="0">
          <mxGeometry x="0.0646" y="-2" relative="1" as="geometry">
            <mxPoint x="-6" y="-1" as="offset" />
          </mxGeometry>
        </mxCell>
        <mxCell id="S2O0dAEXZ0X1E5j-nSAn-12" value="" style="endArrow=classic;html=1;rounded=0;" parent="1" edge="1">
          <mxGeometry width="50" height="50" relative="1" as="geometry">
            <mxPoint x="560" y="950" as="sourcePoint" />
            <mxPoint x="729.9999999999998" y="1000" as="targetPoint" />
            <Array as="points">
              <mxPoint x="560" y="1000" />
            </Array>
          </mxGeometry>
        </mxCell>
        <mxCell id="S2O0dAEXZ0X1E5j-nSAn-13" value="Course Grades and Credits" style="edgeLabel;html=1;align=center;verticalAlign=middle;resizable=0;points=[];" parent="S2O0dAEXZ0X1E5j-nSAn-12" vertex="1" connectable="0">
          <mxGeometry x="-0.0859" relative="1" as="geometry">
            <mxPoint x="24" as="offset" />
          </mxGeometry>
        </mxCell>
        <mxCell id="S2O0dAEXZ0X1E5j-nSAn-14" value="2.0" style="swimlane;whiteSpace=wrap;html=1;startSize=23;" parent="1" vertex="1">
          <mxGeometry x="340" y="1195" width="200" height="90" as="geometry" />
        </mxCell>
        <mxCell id="S2O0dAEXZ0X1E5j-nSAn-15" value="Browse Service Nearby" style="text;html=1;align=center;verticalAlign=middle;resizable=0;points=[];autosize=1;strokeColor=none;fillColor=none;" parent="S2O0dAEXZ0X1E5j-nSAn-14" vertex="1">
          <mxGeometry x="25" y="40" width="150" height="30" as="geometry" />
        </mxCell>
        <mxCell id="S2O0dAEXZ0X1E5j-nSAn-16" value="" style="endArrow=classic;html=1;rounded=0;exitX=0.394;exitY=1.025;exitDx=0;exitDy=0;exitPerimeter=0;" parent="1" source="S2O0dAEXZ0X1E5j-nSAn-1" edge="1">
          <mxGeometry width="50" height="50" relative="1" as="geometry">
            <mxPoint x="842.5599999999995" y="1135" as="sourcePoint" />
            <mxPoint x="540" y="1259.2" as="targetPoint" />
            <Array as="points">
              <mxPoint x="800" y="1259" />
            </Array>
          </mxGeometry>
        </mxCell>
        <mxCell id="S2O0dAEXZ0X1E5j-nSAn-17" value="Service category selection" style="edgeLabel;html=1;align=center;verticalAlign=middle;resizable=0;points=[];" parent="S2O0dAEXZ0X1E5j-nSAn-16" vertex="1" connectable="0">
          <mxGeometry x="0.0166" relative="1" as="geometry">
            <mxPoint x="-75" as="offset" />
          </mxGeometry>
        </mxCell>
        <mxCell id="S2O0dAEXZ0X1E5j-nSAn-18" value="" style="endArrow=classic;html=1;rounded=0;entryX=0;entryY=1;entryDx=0;entryDy=0;exitX=1;exitY=0;exitDx=0;exitDy=0;" parent="1" source="S2O0dAEXZ0X1E5j-nSAn-14" target="S2O0dAEXZ0X1E5j-nSAn-1" edge="1">
          <mxGeometry width="50" height="50" relative="1" as="geometry">
            <mxPoint x="420" y="1170" as="sourcePoint" />
            <mxPoint x="690" y="1090" as="targetPoint" />
            <Array as="points">
              <mxPoint x="730" y="1195" />
            </Array>
          </mxGeometry>
        </mxCell>
        <mxCell id="S2O0dAEXZ0X1E5j-nSAn-19" value="Nearby service list" style="edgeLabel;html=1;align=center;verticalAlign=middle;resizable=0;points=[];" parent="S2O0dAEXZ0X1E5j-nSAn-18" vertex="1" connectable="0">
          <mxGeometry x="-0.3633" y="3" relative="1" as="geometry">
            <mxPoint as="offset" />
          </mxGeometry>
        </mxCell>
        <mxCell id="S2O0dAEXZ0X1E5j-nSAn-20" value="4.0" style="swimlane;whiteSpace=wrap;html=1;" parent="1" vertex="1">
          <mxGeometry x="1130" y="800" width="200" height="90" as="geometry" />
        </mxCell>
        <mxCell id="S2O0dAEXZ0X1E5j-nSAn-21" value="Department&#39;s Books&amp;amp;Courses" style="text;html=1;align=center;verticalAlign=middle;resizable=0;points=[];autosize=1;strokeColor=none;fillColor=none;" parent="S2O0dAEXZ0X1E5j-nSAn-20" vertex="1">
          <mxGeometry x="10" y="42.42" width="180" height="30" as="geometry" />
        </mxCell>
        <mxCell id="S2O0dAEXZ0X1E5j-nSAn-22" value="" style="endArrow=classic;html=1;rounded=0;" parent="1" edge="1">
          <mxGeometry width="50" height="50" relative="1" as="geometry">
            <mxPoint x="850" y="960" as="sourcePoint" />
            <mxPoint x="1130" y="860" as="targetPoint" />
            <Array as="points">
              <mxPoint x="850" y="860" />
            </Array>
          </mxGeometry>
        </mxCell>
        <mxCell id="S2O0dAEXZ0X1E5j-nSAn-23" value="Book and Course Data" style="edgeLabel;html=1;align=center;verticalAlign=middle;resizable=0;points=[];" parent="S2O0dAEXZ0X1E5j-nSAn-22" vertex="1" connectable="0">
          <mxGeometry x="0.0737" y="4" relative="1" as="geometry">
            <mxPoint as="offset" />
          </mxGeometry>
        </mxCell>
        <mxCell id="S2O0dAEXZ0X1E5j-nSAn-24" value="" style="endArrow=classic;html=1;rounded=0;entryX=0.972;entryY=0;entryDx=0;entryDy=0;entryPerimeter=0;" parent="1" target="S2O0dAEXZ0X1E5j-nSAn-1" edge="1">
          <mxGeometry width="50" height="50" relative="1" as="geometry">
            <mxPoint x="1150" y="890" as="sourcePoint" />
            <mxPoint x="1150" y="990" as="targetPoint" />
            <Array as="points">
              <mxPoint x="1150" y="900" />
              <mxPoint x="905" y="900" />
            </Array>
          </mxGeometry>
        </mxCell>
        <mxCell id="S2O0dAEXZ0X1E5j-nSAn-25" value="Acquisition Materials" style="edgeLabel;html=1;align=center;verticalAlign=middle;resizable=0;points=[];" parent="S2O0dAEXZ0X1E5j-nSAn-24" vertex="1" connectable="0">
          <mxGeometry x="0.2182" y="2" relative="1" as="geometry">
            <mxPoint as="offset" />
          </mxGeometry>
        </mxCell>
        <mxCell id="S2O0dAEXZ0X1E5j-nSAn-26" value="&lt;font style=&quot;font-size: 1px;&quot;&gt;-&lt;/font&gt;" style="text;html=1;align=center;verticalAlign=middle;resizable=0;points=[];autosize=1;strokeColor=none;fillColor=none;" parent="1" vertex="1">
          <mxGeometry x="830" y="698" width="20" height="30" as="geometry" />
        </mxCell>
        <mxCell id="S2O0dAEXZ0X1E5j-nSAn-27" value="&lt;font style=&quot;font-size: 1px;&quot;&gt;-&lt;/font&gt;" style="text;html=1;align=center;verticalAlign=middle;resizable=0;points=[];autosize=1;strokeColor=none;fillColor=none;" parent="1" vertex="1">
          <mxGeometry x="1420" y="1040" width="20" height="30" as="geometry" />
        </mxCell>
        <mxCell id="S2O0dAEXZ0X1E5j-nSAn-28" value="&lt;font style=&quot;font-size: 1px;&quot;&gt;-&lt;/font&gt;" style="text;html=1;align=center;verticalAlign=middle;resizable=0;points=[];autosize=1;strokeColor=none;fillColor=none;" parent="1" vertex="1">
          <mxGeometry x="827" y="1330" width="20" height="30" as="geometry" />
        </mxCell>
        <mxCell id="S2O0dAEXZ0X1E5j-nSAn-29" value="&lt;font style=&quot;font-size: 1px;&quot;&gt;-&lt;/font&gt;" style="text;html=1;align=center;verticalAlign=middle;resizable=0;points=[];autosize=1;strokeColor=none;fillColor=none;" parent="1" vertex="1">
          <mxGeometry x="260" y="1030" width="20" height="30" as="geometry" />
        </mxCell>
        <mxCell id="bBveh2T4n2WlGPGiCsFe-1" value="&lt;font style=&quot;font-size: 24px;&quot;&gt;Figure 3.3 : Child Level DFD&lt;/font&gt;" style="text;html=1;align=center;verticalAlign=middle;resizable=0;points=[];autosize=1;strokeColor=none;fillColor=none;rotation=-90;" parent="1" vertex="1">
          <mxGeometry x="1220" y="1025" width="330" height="40" as="geometry" />
        </mxCell>
      </root>
    </mxGraphModel>
  </diagram>
</mxfile>
